<?xml version="1.0" encoding="UTF-8"?>
<svg id="Layer_1" xmlns="http://www.w3.org/2000/svg" version="1.1" xmlns:xlink="http://www.w3.org/1999/xlink" viewBox="0 0 72 72">
  <!-- Generator: Adobe Illustrator 30.0.0, SVG Export Plug-In . SVG Version: 2.1.1 Build 123)  -->
  <defs>
    <style>
      .st0 {
        fill: #fff;
      }

      .st1 {
        fill: url(#linear-gradient);
      }
    </style>
    <linearGradient id="linear-gradient" x1="-3050.39" y1="121.68" x2="-3048.34" y2="-26.61" gradientTransform="translate(3085.18 72.4) scale(1 -1)" gradientUnits="userSpaceOnUse">
      <stop offset=".36" stop-color="#f0f8f4"/>
      <stop offset=".38" stop-color="#d5e8ed"/>
      <stop offset=".41" stop-color="#97c2de"/>
      <stop offset=".44" stop-color="#66a5d2"/>
      <stop offset=".47" stop-color="#428fc9"/>
      <stop offset=".49" stop-color="#2c82c3"/>
      <stop offset=".5" stop-color="#257ec2"/>
      <stop offset=".67" stop-color="#004f85"/>
      <stop offset=".81" stop-color="#2e55a5"/>
    </linearGradient>
  </defs>
  <rect class="st1" x="10.1" y="9.06" width="51.74" height="54.27" rx="25.87" ry="25.87" transform="translate(71.94 72.4) rotate(180)"/>
  <g>
    <path class="st0" d="M48.74,33.81c-7.44.08-14.87.15-22.31.23l-3.22.03,1.77,4.27c3.35-3.78,6.71-7.57,10.06-11.35,2.13-2.4-1.4-5.95-3.54-3.54-3.35,3.78-6.71,7.57-10.06,11.35-1.39,1.57-.5,4.29,1.77,4.27,7.42-.07,14.84-.15,22.25-.22l3.28-.03c3.22-.03,3.22-5.03,0-5h0Z"/>
    <path class="st0" d="M35.03,45.63c-2.94-3.17-5.88-6.33-8.82-9.5l-1.24-1.34c-.89-.96-2.65-.97-3.54,0-.94,1.03-.95,2.51,0,3.54,2.94,3.17,5.88,6.33,8.82,9.5l1.24,1.34c.89.96,2.65.97,3.54,0,.94-1.03.95-2.51,0-3.54h0Z"/>
  </g>
</svg>