<?xml version="1.0" encoding="UTF-8"?>
<svg id="Layer_1" xmlns="http://www.w3.org/2000/svg" version="1.1" xmlns:xlink="http://www.w3.org/1999/xlink" viewBox="0 0 72 72">
  <!-- Generator: Adobe Illustrator 29.8.3, SVG Export Plug-In . SVG Version: 2.1.1 Build 3)  -->
  <defs>
    <style>
      .st0 {
        fill: #fff;
      }

      .st1 {
        fill: url(#linear-gradient);
      }
    </style>
    <linearGradient id="linear-gradient" x1="-4200.35" y1="857.65" x2="-4198.3" y2="709.36" gradientTransform="translate(4235.18 -736.14)" gradientUnits="userSpaceOnUse">
      <stop offset=".36" stop-color="#f0f8f4"/>
      <stop offset=".38" stop-color="#d5e8ed"/>
      <stop offset=".41" stop-color="#97c2de"/>
      <stop offset=".44" stop-color="#66a5d2"/>
      <stop offset=".47" stop-color="#428fc9"/>
      <stop offset=".49" stop-color="#2c82c3"/>
      <stop offset=".5" stop-color="#257ec2"/>
      <stop offset=".67" stop-color="#004f85"/>
      <stop offset=".81" stop-color="#2e55a5"/>
    </linearGradient>
  </defs>
  <path class="st1" d="M10.15,37.3v-2.53c0-14.29,11.58-25.87,25.87-25.87h0c14.29,0,25.87,11.58,25.87,25.87v2.53c0,14.29-11.58,25.87-25.87,25.87h0c-14.29,0-25.87-11.58-25.87-25.87Z"/>
  <g>
    <path class="st0" d="M23.21,33.58h0c-3.22-.03-3.22,4.97,0,5l3.28.03c7.41.07,14.83.15,22.25.22,2.27.02,3.16-2.7,1.77-4.27-3.35-3.78-6.71-7.57-10.06-11.35-2.14-2.41-5.67,1.14-3.54,3.54,3.35,3.78,6.71,7.57,10.06,11.35l1.77-4.27-3.22-.03c-7.44-.08-14.87-.15-22.31-.23h0Z"/>
    <path class="st0" d="M36.92,45.39c-.95,1.03-.94,2.51,0,3.54.89.97,2.65.96,3.54,0l1.24-1.34c2.94-3.17,5.88-6.33,8.82-9.5.95-1.03.94-2.51,0-3.54-.89-.97-2.65-.96-3.54,0l-1.24,1.34c-2.94,3.17-5.88,6.33-8.82,9.5h0Z"/>
  </g>
</svg>